<svg width="41" height="41" viewBox="0 0 41 41" fill="none" xmlns="http://www.w3.org/2000/svg">
<g clip-path="url(#clip0_95_36)">
<path d="M4.80466 0.152149C4.56442 0.232227 4.21208 0.376369 4.01989 0.472462C3.64353 0.66465 0.59255 3.54746 0.26423 4.02793C-0.0400668 4.46836 -0.0881137 5.21309 0.152121 5.70957C0.392355 6.21407 0.8488 6.51035 1.44138 6.55039C2.18611 6.60645 2.41833 6.47832 3.41931 5.50137L4.32419 4.62051L4.34021 18.1057L4.36423 31.5908L4.58044 32.2315C4.9488 33.2885 5.38923 33.9932 6.19802 34.802C7.00681 35.6107 7.7115 36.0512 8.76853 36.4195L9.40915 36.6357L22.8783 36.6598L36.3474 36.6758L35.4746 37.5406C34.5217 38.4695 34.3535 38.7578 34.3535 39.4145C34.3535 40.2953 34.922 40.9199 35.7949 40.984C36.6037 41.04 36.7238 40.968 38.4695 39.2463C39.3424 38.3815 40.1992 37.4606 40.3674 37.2043C41.2162 35.907 41.2162 34.0732 40.3674 32.784C40.1992 32.5277 39.3424 31.6068 38.4695 30.742C36.7238 29.0203 36.6117 28.9482 35.7949 29.0043C34.922 29.0684 34.3535 29.693 34.3535 30.5738C34.3535 31.2465 34.5217 31.5107 35.5627 32.5357L36.5316 33.4727H23.7271C15.6392 33.4727 10.7224 33.4406 10.3701 33.3926C8.91267 33.1844 7.8156 32.0873 7.60739 30.6299C7.55935 30.2775 7.52732 25.3607 7.52732 17.2648V4.46035L8.51228 5.42129C9.60935 6.48633 9.82556 6.60645 10.5703 6.55039C11.4431 6.48633 12.0117 5.86172 12.0117 4.96485C12.0117 4.24414 11.8355 4.00391 10.0097 2.2502C8.28806 0.600586 7.98376 0.384377 7.11091 0.128128C6.51833 -0.0400391 5.38923 -0.0320282 4.80466 0.152149Z" fill="#00A7A9"/>
<path d="M14.6783 0.168179C14.1898 0.408413 13.9096 0.864859 13.8695 1.48947C13.8295 2.13009 14.0377 2.60255 14.5101 2.93087L14.8385 3.1631L25.6971 3.20314L36.5556 3.24318L36.876 3.41134C37.2443 3.61154 37.3965 3.77169 37.6047 4.16408C37.7488 4.43634 37.7568 4.89279 37.7969 15.343L37.8369 26.2416L38.0691 26.5699C38.3974 27.0424 38.8699 27.2506 39.5105 27.2106C40.1431 27.1705 40.5916 26.8902 40.8398 26.3938C41 26.0574 41 25.9533 41 15.0627C41 2.8588 41.032 3.66759 40.4635 2.53048C40.0791 1.76173 39.2383 0.920914 38.4695 0.536539C37.3324 -0.0320168 38.1332 1.52588e-05 25.9773 1.52588e-05C15.0787 1.52588e-05 15.0146 1.52588e-05 14.6783 0.168179Z" fill="#00A7A9"/>
<path d="M29.5088 8.83262C27.9873 9.40117 27.0103 10.8025 27.0744 12.324C27.0984 12.8365 27.1465 13.0047 27.3306 13.277C27.6189 13.7174 28.0914 13.9576 28.6679 13.9576C29.5168 13.9576 30.1013 13.4531 30.2695 12.5803C30.3656 12.0598 30.4617 11.9316 30.758 11.9316C31.0062 11.9316 31.2304 12.1158 31.2304 12.324C31.2304 12.7004 29.9812 14.2619 28.3156 15.9676C27.6189 16.6803 27.1945 17.1848 27.1384 17.3609C27.0904 17.5131 27.0664 17.8494 27.0824 18.1057C27.1224 18.6262 27.3627 19.0186 27.8672 19.3549C28.1314 19.5391 28.1634 19.5391 30.774 19.5391C33.3125 19.5391 33.4406 19.5311 33.7769 19.3709C34.2734 19.1307 34.5377 18.6902 34.5777 18.0496C34.6418 17.0326 34.0892 16.408 33.0642 16.352L32.5197 16.3199L33.0322 15.6553C34.0812 14.31 34.5136 13.341 34.5136 12.316C34.5136 10.7225 33.5047 9.3291 31.9752 8.80058C31.3265 8.57637 30.1574 8.59238 29.5088 8.83262Z" fill="#00A7A9"/>
<path d="M11.5473 14.4221C11.339 14.5262 11.1068 14.7344 10.9867 14.9186L10.7705 15.2469L10.7465 20.7643C10.7305 26.2656 10.7305 26.2897 10.8986 26.642C11.1389 27.1465 11.5713 27.4108 12.2199 27.4508C12.8685 27.4908 13.365 27.2746 13.6773 26.8022L13.8935 26.4818L13.9336 22.4699C13.9736 18.6182 13.9816 18.45 14.1338 18.1777C14.5902 17.409 15.6793 17.409 16.1357 18.1777C16.2879 18.45 16.2959 18.6182 16.3359 22.4699L16.376 26.4818L16.5922 26.8022C17.1767 27.691 18.6982 27.691 19.2828 26.8022L19.499 26.4818L19.539 22.4699C19.5791 18.6182 19.5871 18.45 19.7392 18.1777C20.1957 17.409 21.2848 17.409 21.7412 18.1777C21.8933 18.45 21.9014 18.6182 21.9414 22.4699L21.9814 26.4818L22.1736 26.7621C22.526 27.2666 22.8463 27.4268 23.543 27.4268C24.2396 27.4268 24.5599 27.2666 24.9123 26.7621L25.1045 26.4738L25.1285 22.2377C25.1525 17.5611 25.1605 17.6332 24.648 16.6242C24.3277 15.9916 23.4869 15.1508 22.8543 14.8305C21.3969 14.0938 19.7953 14.1338 18.466 14.9346C18.2098 15.0867 17.9695 15.2149 17.9375 15.2149C17.9055 15.2149 17.6652 15.0867 17.409 14.9346C16.408 14.334 15.0467 14.1418 13.9576 14.4541C13.4691 14.5902 13.4531 14.5902 13.1088 14.4221C12.6443 14.1979 12.0037 14.1979 11.5473 14.4221Z" fill="#00A7A9"/>
</g>
<defs>
<clipPath id="clip0_95_36">
<rect width="41" height="41" fill="white"/>
</clipPath>
</defs>
</svg>
