<svg width="44" height="44" viewBox="0 0 44 44" fill="none" xmlns="http://www.w3.org/2000/svg">
<g clip-path="url(#clip0_95_23)">
<path d="M11.6961 2.79297C9.33279 3.45469 8.01794 6.26485 9.08357 8.37032C9.39294 8.98047 9.66794 9.32422 10.132 9.65938C10.3468 9.82266 12.8304 11.275 15.6406 12.8906C18.4508 14.5063 20.8054 15.8727 20.8656 15.9328C20.9601 16.0273 22.4297 18.5023 22.3953 18.5281C22.3953 18.5367 20.8656 19.4219 19.0008 20.4961C16.6461 21.8539 15.5718 22.4297 15.4945 22.3781C15.4258 22.3352 14.4375 21.1406 13.2945 19.7227C11.8508 17.9352 11.1203 17.1016 10.914 16.9984C10.639 16.8523 10.2093 16.8438 5.80076 16.8438C0.438256 16.8438 0.601537 16.8266 0.197631 17.4367L-2.5493e-05 17.7289V29.0641C-2.5493e-05 41.5508 -0.0344005 40.6828 0.532787 41.0953L0.816381 41.293L20.0922 41.3188C39.0156 41.3359 39.3851 41.3359 39.7547 41.1727C40.4508 40.8633 40.4765 40.7516 40.4765 38.3023V36.1797H41.7054C42.7195 36.1797 42.9859 36.1453 43.2867 36.0078C44.2062 35.5953 44.2664 34.2289 43.3812 33.6875C43.0976 33.5156 42.9172 33.5156 30.3617 33.5156H17.6172V30.293C17.6172 28.5227 17.6429 27.0703 17.6687 27.0703C17.7031 27.0703 18.5195 27.2852 19.4992 27.5516C20.8914 27.9297 21.364 28.0242 21.6992 27.9898C22.0773 27.9555 23.332 27.2594 32.7851 21.7938C38.6461 18.4078 43.5531 15.5203 43.6906 15.3828C43.9054 15.1766 43.9484 15.0477 43.9828 14.6094C44.0172 14.0938 44.0086 14.0766 43.4414 13.0797C42.7195 11.8336 42.264 11.2922 41.525 10.8023C40.1156 9.87422 38.3453 9.65938 36.8672 10.2609C36.6094 10.3641 34.8047 11.3609 32.8625 12.4867C30.9203 13.6039 29.2961 14.5234 29.2445 14.5234C29.1929 14.5234 28.6343 13.6211 27.9984 12.5211C27.3711 11.4297 26.7437 10.407 26.5976 10.2523C26.2883 9.92579 14.4203 3.09375 13.7929 2.87891C13.1828 2.67266 12.2633 2.63829 11.6961 2.79297ZM18.8289 8.78282L24.6898 12.1602L25.7812 14.0508C26.7179 15.6664 26.8554 15.95 26.7351 16.0188C26.6578 16.0617 26.1851 16.3453 25.6781 16.6375C25.025 17.0156 24.7328 17.1445 24.6812 17.0758C24.6383 17.0156 24.2429 16.3453 23.8047 15.5719C23.3664 14.807 22.9195 14.0938 22.8078 13.982C22.7047 13.8789 20.2211 12.418 17.2992 10.7422C14.3773 9.06641 11.8679 7.58829 11.7218 7.45938C11.5758 7.32188 11.4297 7.10704 11.4039 6.96954C11.2492 6.22188 12.0226 5.25938 12.6929 5.36251C12.839 5.37969 15.6062 6.91797 18.8289 8.78282ZM39.6773 12.8047C40.1929 13.0281 40.975 13.8961 40.8031 14.0422C40.7945 14.0594 36.4117 16.5945 31.0664 19.6797L21.3554 25.2828L19.6797 24.8359C18.7601 24.5867 17.9609 24.3633 17.9093 24.3289C17.789 24.2688 37.4172 12.9164 38.0273 12.7016C38.5258 12.5211 39.1187 12.5555 39.6773 12.8047ZM12.3148 22.782L14.9531 26.0563V32.3641V38.6719H8.7656H2.5781V29.0898V19.5078H6.12732H9.66794L12.3148 22.782ZM37.8125 37.4258V38.6719H27.7148H17.6172V37.4258V36.1797H27.7148H37.8125V37.4258Z" fill="#00A7A9"/>
<path d="M5.79213 33.5242C5.63745 33.5672 5.39682 33.7391 5.25932 33.9023C4.78667 34.4266 4.78667 35.1828 5.25073 35.707C6.16167 36.7383 7.78588 35.8703 7.52807 34.5039C7.45073 34.1 7.02104 33.6273 6.63432 33.5156C6.26479 33.4125 6.15307 33.4211 5.79213 33.5242Z" fill="#00A7A9"/>
<path d="M10.9484 33.5242C10.7937 33.5672 10.5531 33.7391 10.4156 33.9023C9.94292 34.4266 9.94292 35.1828 10.407 35.707C11.3179 36.7383 12.9421 35.8703 12.6843 34.5039C12.607 34.1 12.1773 33.6273 11.7906 33.5156C11.421 33.4125 11.3093 33.4211 10.9484 33.5242Z" fill="#00A7A9"/>
<path d="M37.357 22.9367C37.0218 23.1516 36.8671 23.4008 36.7296 23.9164C36.5578 24.5695 36.5835 25.6008 36.7898 26.5031C36.9531 27.182 36.9617 27.3453 36.8757 27.7664C36.6781 28.7289 36.7898 29.2016 37.314 29.5797C37.7351 29.8719 38.457 29.8547 38.8695 29.5367C39.5484 29.0211 39.7718 27.5945 39.4281 25.9961C39.239 25.1539 39.2304 24.9992 39.3249 24.5523C39.4796 23.7875 39.3078 23.2805 38.7835 22.9367C38.457 22.7219 37.6835 22.7219 37.357 22.9367Z" fill="#00A7A9"/>
<path d="M31.0578 24.2687C30.2156 24.6383 29.9148 26.1594 30.3359 27.9211C30.5078 28.643 30.5164 28.7719 30.4218 29.2273C30.2585 30.0008 30.3445 30.4648 30.714 30.843C31.0148 31.1352 31.0492 31.1523 31.6249 31.1523C32.1835 31.1523 32.2351 31.1352 32.5273 30.8516C32.957 30.4391 33.1289 29.8375 33.1203 28.7461C33.1203 28.1703 33.0601 27.6547 32.9398 27.182C32.8023 26.6492 32.7765 26.4 32.8367 26.1508C32.8796 25.9703 32.914 25.6437 32.914 25.4289C32.914 24.4922 31.9429 23.882 31.0578 24.2687Z" fill="#00A7A9"/>
</g>
<defs>
<clipPath id="clip0_95_23">
<rect width="44" height="44" fill="white"/>
</clipPath>
</defs>
</svg>
