<svg width="45" height="44" viewBox="0 0 45 44" fill="none" xmlns="http://www.w3.org/2000/svg">
<g clip-path="url(#clip0_95_31)">
<path d="M19.916 0.137493C13.8252 1.09999 8.92968 4.96718 6.72363 10.5617C6.36328 11.4641 6.04687 12.6672 5.83593 13.8789C5.60742 15.2023 5.625 17.6086 5.87988 19.0351C6.38086 21.8281 7.57617 24.475 9.27246 26.5031L9.65039 26.9586L6.60937 32.0547C3.24316 37.7094 3.2959 37.5805 3.6914 38.3711C3.81445 38.6117 4.02539 38.8523 4.22754 38.9898C4.84277 39.3851 5.0625 39.3594 7.86621 38.5516C9.26367 38.1476 10.4414 37.8469 10.4678 37.8812C10.5029 37.9156 10.9512 39.1359 11.4697 40.6055C12.4365 43.3555 12.5596 43.5961 13.1133 43.8797C13.4648 44.0601 14.3086 44.0344 14.6426 43.8367C15.0557 43.5961 15.1787 43.3898 17.2353 39.8836C19.081 36.7297 19.1162 36.6609 19.1162 36.1797C19.1162 35.7844 19.0635 35.6211 18.8701 35.3289C18.3428 34.5555 17.1211 34.4094 16.418 35.0367C16.3301 35.1055 15.8027 35.9648 15.2314 36.9273L14.2031 38.6891L13.5791 36.9187C13.2363 35.9476 12.8672 35.0367 12.7617 34.8992C12.5068 34.5555 11.9619 34.2891 11.54 34.2891C11.3555 34.2891 10.626 34.4609 9.91406 34.6672C9.19336 34.8734 8.61328 35.0281 8.61328 35.0109C8.61328 34.9766 11.417 30.25 11.8828 29.5023L12.0498 29.2273L12.665 29.657C14.7041 31.1094 17.2793 32.132 19.9512 32.5359C21.1728 32.725 23.6426 32.725 24.8467 32.5445C27.6504 32.1148 30.3047 31.0406 32.3701 29.5109C32.6514 29.2961 32.8975 29.1328 32.915 29.15C32.9766 29.2273 36.3867 34.9766 36.3867 35.0109C36.3867 35.0281 35.8066 34.8734 35.0947 34.6672C34.374 34.4609 33.6445 34.2891 33.46 34.2891C33.0381 34.2891 32.4932 34.5555 32.2383 34.8992C32.1328 35.0367 31.7637 35.9476 31.4209 36.9273L30.7969 38.6891L29.9268 37.2023C28.6611 35.0109 28.5381 34.8391 28.1162 34.6242C27.6416 34.3922 26.8418 34.4266 26.4727 34.693C25.9453 35.0711 25.6728 35.7156 25.7871 36.3C25.8486 36.618 29.6807 43.2266 29.9971 43.5531C30.3047 43.8797 30.6299 44 31.1572 44C32.124 44 32.458 43.6648 33.0029 42.1094C33.2314 41.4734 33.6533 40.2703 33.9346 39.4453C34.2246 38.6203 34.4971 37.9156 34.5322 37.8726C34.5674 37.8383 35.6836 38.1305 37.0107 38.5172C39.7705 39.325 40.166 39.3766 40.7549 38.9984C40.9746 38.8523 41.1855 38.6203 41.3086 38.3711C41.7041 37.5805 41.7656 37.718 38.3555 31.9945L35.2793 26.8555L35.8769 26.082C37.4678 24.0195 38.5576 21.4414 38.9883 18.7344C39.1641 17.6601 39.1816 15.2539 39.0322 14.1797C38.0478 7.20156 32.7041 1.65858 25.6113 0.24921C24.3721 -7.62939e-06 21.1553 -0.0601616 19.916 0.137493ZM24.9873 3.35155C29.1269 4.15077 32.6338 6.76328 34.4971 10.4414C35.1211 11.6875 35.4199 12.5039 35.7012 13.7844C35.9824 15.0562 35.9824 17.6086 35.7012 18.9062C34.5234 24.2258 30.4893 28.1703 25.0488 29.3219C23.7129 29.5969 21.1113 29.5969 19.7754 29.3219C17.0332 28.7375 14.8271 27.5687 12.876 25.6523C10.9072 23.7273 9.72949 21.6219 9.12304 18.932C8.96484 18.2187 8.92968 17.8148 8.92968 16.3281C8.92968 14.6953 8.94726 14.4891 9.17578 13.5352C10.5293 7.85468 15.082 3.89296 21.0937 3.14531C21.8408 3.05937 24.0644 3.17109 24.9873 3.35155Z" fill="#00A7A9"/>
<path d="M21.5684 6.60859C21.3662 6.69453 21.1289 6.88359 21.0322 7.0125C20.9355 7.15 20.373 8.25 19.7842 9.45313C19.1865 10.6563 18.6943 11.6531 18.6943 11.6617C18.6855 11.6617 17.5166 11.8508 16.0928 12.0656C14.6777 12.2891 13.3857 12.5211 13.2275 12.5813C13.0693 12.65 12.832 12.8477 12.6914 13.0195C12.3662 13.4406 12.2871 14.3172 12.542 14.7555C12.6562 14.9617 15.0732 17.2047 16.5059 18.4336C16.5146 18.4422 16.3477 19.5508 16.1279 20.9C15.9082 22.2492 15.7324 23.4609 15.7324 23.5984C15.7324 23.9164 16.0312 24.5008 16.2949 24.6812C16.6641 24.9477 17.2617 25.0594 17.6924 24.9477C17.9033 24.8875 19.081 24.3203 20.3027 23.6758L22.5352 22.507L23.0713 22.7391C23.3613 22.868 24.416 23.3664 25.418 23.8562C26.4199 24.3461 27.3955 24.7758 27.5977 24.8016C28.3271 24.9133 29.1357 24.3805 29.3643 23.6414C29.4609 23.3406 29.417 23.0313 28.9687 20.7883L28.4678 18.2703L30.3486 16.4227C31.3857 15.4 32.2822 14.4805 32.335 14.3773C32.4668 14.1195 32.458 13.3719 32.3086 13.0367C32.1592 12.6758 31.7197 12.3148 31.3066 12.2117C31.1309 12.1688 29.9531 12.0055 28.6963 11.8594C27.4394 11.7133 26.3232 11.5758 26.2266 11.5586C26.0771 11.5242 25.7519 10.9828 24.8467 9.30703C24.1875 8.08672 23.5459 6.98672 23.4053 6.85781C22.9307 6.41953 22.2187 6.31641 21.5684 6.60859ZM23.1064 12.8477C23.9502 14.4203 23.9941 14.4547 25.6289 14.6523C26.2529 14.7211 26.8945 14.807 27.0615 14.8328L27.3603 14.8844L26.3408 15.8813C25.7783 16.4313 25.2773 16.9984 25.2334 17.1273C25.0928 17.4969 25.1191 17.875 25.3652 19.1469C25.4883 19.7742 25.5762 20.3156 25.5498 20.3328C25.5322 20.35 24.9697 20.1094 24.293 19.7914C22.5176 18.9664 22.5176 18.9664 20.7773 19.8516C20.0215 20.2383 19.415 20.5047 19.4414 20.4445C19.4678 20.3758 19.582 19.7398 19.6875 19.018C19.96 17.2906 19.9512 17.2648 18.5801 16.0102C17.9033 15.4 17.6133 15.0734 17.6836 15.0305C17.7451 15.0047 18.2549 14.9102 18.8086 14.8242C20.8564 14.5234 20.8389 14.5406 21.7002 12.8219C22.2539 11.7305 22.3769 11.55 22.456 11.6703C22.5088 11.7477 22.8076 12.2805 23.1064 12.8477Z" fill="#00A7A9"/>
</g>
<defs>
<clipPath id="clip0_95_31">
<rect width="45" height="44" fill="white"/>
</clipPath>
</defs>
</svg>
