<svg width="198" height="54" viewBox="0 0 198 54" fill="none" xmlns="http://www.w3.org/2000/svg">
<g clip-path="url(#clip0_1_3)">
<path d="M27.2093 7.52626L34.4438 19.8908H43.2567L31.6063 0L27.2093 7.52626ZM38.8408 27.4171L54.3809 53.9815H63.1939L47.6538 27.4171H38.8408Z" fill="#005F97"/>
<path d="M20.3882 33.9794L8.81294 53.9815H0L15.9911 26.4531L20.3882 33.9794Z" fill="#00D6B4"/>
<path d="M39.0288 46.6591V39.1329H24.7289L20.407 46.6591H39.0288Z" fill="#00D6B4"/>
<path d="M7.45999 46.4738V54H23.282L27.6039 46.4738H7.45999Z" fill="#00D6B4"/>
<path d="M29.5581 33.312V25.7858H61.7846L66.1065 33.312H29.5581Z" fill="#005F97"/>
<path d="M19.6365 20.4284L27.2093 33.2935H36.0222L24.0336 12.9022L19.6365 20.4284ZM30.5916 39.1514L39.273 53.9815H48.086L39.4046 39.1514H30.5916Z" fill="#00A7A9"/>
<path d="M83.6196 10.7889L80.9889 23.932H78.8655V30.4202H82.1352L82.4358 27.2688H95.3264L95.627 30.4202H98.8967V23.932H96.9424V10.7889H83.6196ZM86.7014 14.033H93.1654V23.932H84.9162L86.7014 14.033ZM104.402 19.0381C104.402 15.6457 106.845 13.5881 109.983 13.5881C113.121 13.5881 115.564 15.6457 115.564 19.0381C115.564 22.4305 113.121 24.4882 109.983 24.4882C106.845 24.4882 104.402 22.4305 104.402 19.0381ZM119.341 19.0381C119.341 13.8476 115.057 10.3996 109.983 10.3996C104.91 10.3996 100.625 13.8476 100.625 19.0381C100.625 24.2286 104.91 27.6766 109.983 27.6766C115.057 27.6766 119.341 24.2286 119.341 19.0381ZM122.122 10.7889V27.2688H125.899V20.4099H135.313V27.2688H139.09V10.7889H135.313V17.0731H125.899V10.7889H122.122ZM141.514 10.7889V14.1257H148.317V27.2688H152.094V14.1257H158.896V10.7889H141.514ZM161.283 10.7889V27.2688H176.86V23.8393H165.06V20.5582H175.301V17.1844H165.06V14.1442H176.447V10.7889H161.283ZM179.284 10.7889L184.903 18.6859L178.946 27.2688H183.324L187.89 20.484H189.074L193.641 27.2688H198.019L192.1 18.5932L197.681 10.7889H193.396L189.018 17.1287H187.966L183.587 10.7889H179.284ZM88.355 40.412H89.6515L92.6769 47.827H85.2545L88.355 40.412ZM86.0061 37.0937L78.734 53.5736H82.7741L83.8639 51.0711H94.1614L95.2512 53.5736H99.2349L92.1319 37.0937H86.0061ZM106.018 37.0937L103.782 48.8836C103.594 49.7734 103.031 50.1627 102.148 50.1627H100.344V53.5551H102.335C105.079 53.5551 106.92 52.276 107.465 49.3471L109.157 40.412H115.564V53.5551H119.341V37.0752H106.018V37.0937ZM122.367 37.0937V53.5736H131.912C135.84 53.5736 138.79 50.9784 138.79 47.104C138.79 43.2297 135.84 40.8569 131.912 40.8569H126.144V37.1123H122.367V37.0937ZM126.144 44.1565H131.63C133.867 44.1565 135.013 45.0834 135.013 47.104C135.013 49.1246 133.867 50.1813 131.63 50.1813H126.144V44.1565ZM157.449 37.0937H147.603C143.675 37.0937 140.725 39.689 140.725 43.5633C140.725 46.103 141.984 47.9938 143.957 49.0505L141.383 53.5736H145.498L147.452 49.9032H153.672V53.5736H157.449V37.0937ZM153.672 40.5046V46.5294H147.753C145.818 46.5294 144.483 45.4913 144.483 43.5819C144.483 41.6725 145.818 40.5046 147.753 40.5046H153.672ZM160.493 37.0937V53.5736H164.27V46.7147H173.685V53.5736H177.462V37.0937H173.685V43.378H164.27V37.0937H160.493ZM197.981 41.1164C196.252 38.2245 193.415 36.7044 189.525 36.7044C184.264 36.7044 180.186 40.0041 180.186 45.343C180.186 50.6818 184.17 53.9815 189.525 53.9815C193.415 53.9815 196.252 52.4614 197.981 49.5695L195.05 47.9011C193.791 49.6808 192.118 50.6632 189.469 50.6632C186.199 50.6632 183.944 48.5129 183.944 45.3244C183.944 42.0803 186.124 39.9856 189.469 39.9856C192.118 39.9856 193.791 40.9681 195.05 42.7477L197.981 41.1164Z" fill="#2E366B"/>
</g>
<defs>
<clipPath id="clip0_1_3">
<rect width="198" height="54" fill="white"/>
</clipPath>
</defs>
</svg>
