<svg width="188" height="52" viewBox="0 0 188 52" fill="none" xmlns="http://www.w3.org/2000/svg">
<g clip-path="url(#clip0_80_1009)">
<path d="M25.8351 7.24751L32.7042 19.1541H41.072L30.0101 0L25.8351 7.24751ZM36.8792 26.4016L51.6344 51.9822H60.0023L45.247 26.4016H36.8792Z" fill="#005F97"/>
<path d="M19.3585 32.7211L8.36785 51.9824H0L15.1834 25.4736L19.3585 32.7211Z" fill="#00D6B4"/>
<path d="M37.0576 44.9311V37.6836H23.4799L19.3763 44.9311H37.0576Z" fill="#00D6B4"/>
<path d="M7.08322 44.7524V52H22.1061L26.2097 44.7524H7.08322Z" fill="#00D6B4"/>
<path d="M28.0653 32.0781V24.8306H58.6641L62.7678 32.0781H28.0653Z" fill="#005F97"/>
<path d="M18.6448 19.6718L25.8351 32.0604H34.2029L22.8198 12.4243L18.6448 19.6718ZM29.0466 37.7014L37.2896 51.9822H45.6574L37.4144 37.7014H29.0466Z" fill="#00A7A9"/>
<path d="M79.3964 10.3895L76.8986 23.0459H74.8824V29.2937H77.9869L78.2724 26.2591H90.5119L90.7974 29.2937H93.9019V23.0459H92.0463V10.3895H79.3964ZM82.3225 13.5134H88.4601V23.0459H80.6275L82.3225 13.5134ZM99.1296 18.3332C99.1296 15.0665 101.449 13.085 104.429 13.085C107.408 13.085 109.728 15.0665 109.728 18.3332C109.728 21.6 107.408 23.5814 104.429 23.5814C101.449 23.5814 99.1296 21.6 99.1296 18.3332ZM113.314 18.3332C113.314 13.3349 109.246 10.0146 104.429 10.0146C99.6113 10.0146 95.5433 13.3349 95.5433 18.3332C95.5433 23.3315 99.6113 26.6518 104.429 26.6518C109.246 26.6518 113.314 23.3315 113.314 18.3332ZM115.954 10.3895V26.2591H119.541V19.6542H128.479V26.2591H132.066V10.3895H128.479V16.441H119.541V10.3895H115.954ZM134.367 10.3895V13.6027H140.826V26.2591H144.412V13.6027H150.871V10.3895H134.367ZM153.137 10.3895V26.2591H167.928V22.9566H156.723V19.797H166.447V16.5481H156.723V13.6206H167.535V10.3895H153.137ZM170.229 10.3895L175.564 17.9941L169.908 26.2591H174.065L178.401 19.7256H179.525L183.861 26.2591H188.018L182.398 17.9048L187.697 10.3895H183.629L179.472 16.4946H178.472L174.315 10.3895H170.229ZM83.8926 38.9154H85.1237L87.9962 46.0558H80.9487L83.8926 38.9154ZM81.6623 35.7201L74.7575 51.5897H78.5935L79.6284 49.1798H89.4057L90.4406 51.5897H94.223L87.4788 35.7201H81.6623ZM100.664 35.7201L98.5408 47.0734C98.3624 47.9302 97.8271 48.3051 96.9885 48.3051H95.2757V51.5718H97.1669C99.7719 51.5718 101.52 50.3401 102.038 47.5196L103.644 38.9154H109.728V51.5718H113.314V35.7023H100.664V35.7201ZM116.186 35.7201V51.5897H125.25C128.979 51.5897 131.78 49.0905 131.78 45.3597C131.78 41.6288 128.979 39.3439 125.25 39.3439H119.773V35.738H116.186V35.7201ZM119.773 42.5213H124.982C127.106 42.5213 128.194 43.4139 128.194 45.3597C128.194 47.3054 127.106 48.3229 124.982 48.3229H119.773V42.5213ZM149.497 35.7201H140.148C136.419 35.7201 133.618 38.2192 133.618 41.9501C133.618 44.3957 134.813 46.2165 136.687 47.234L134.242 51.5897H138.15L140.005 48.0552H145.911V51.5897H149.497V35.7201ZM145.911 39.0047V44.8063H140.291C138.453 44.8063 137.186 43.8066 137.186 41.968C137.186 40.1293 138.453 39.0047 140.291 39.0047H145.911ZM152.388 35.7201V51.5897H155.974V44.9848H164.913V51.5897H168.499V35.7201H164.913V41.7716H155.974V35.7201H152.388ZM187.982 39.5938C186.341 36.809 183.647 35.3452 179.953 35.3452C174.958 35.3452 171.086 38.5227 171.086 43.6638C171.086 48.8049 174.868 51.9824 179.953 51.9824C183.647 51.9824 186.341 50.5186 187.982 47.7338L185.199 46.1272C184.003 47.8409 182.415 48.787 179.9 48.787C176.795 48.787 174.654 46.7163 174.654 43.646C174.654 40.522 176.724 38.5049 179.9 38.5049C182.415 38.5049 184.003 39.451 185.199 41.1647L187.982 39.5938Z" fill="white"/>
</g>
<defs>
<clipPath id="clip0_80_1009">
<rect width="188" height="52" fill="white"/>
</clipPath>
</defs>
</svg>
