<svg width="50" height="42" viewBox="0 0 50 42" fill="none" xmlns="http://www.w3.org/2000/svg">
<path d="M20.5781 5.848L26.0557 15.4697H32.7141L23.9092 0L20.5781 5.848ZM29.3831 21.3253L41.1418 41.9885H47.8002L36.0415 21.3253H29.3831Z" fill="#005F97"/>
<path d="M15.4256 26.427L6.6584 41.9847H0L12.0945 20.5752L15.4256 26.427Z" fill="#00D6B4"/>
<path d="M29.524 36.2859V30.4341H18.7121L15.4414 36.2859H29.524Z" fill="#00D6B4"/>
<path d="M5.63672 36.1482V42H17.6068L20.8737 36.1482H5.63672Z" fill="#00D6B4"/>
<path d="M22.3633 25.9065V20.0585H46.7296L50.0004 25.9065H22.3633Z" fill="#005F97"/>
<path d="M14.8555 15.8983L20.5896 25.9103H27.248L18.1866 10.0465L14.8555 15.8983ZM23.1436 30.4571L29.7039 41.9847H36.3623L29.802 30.4571H23.1436Z" fill="#00A7A9"/>
</svg>
