<svg width="27" height="25" viewBox="0 0 27 25" fill="none" xmlns="http://www.w3.org/2000/svg">
<path d="M13.5 0C7.91543 0 3.375 4.2041 3.375 9.375C3.375 16.2891 12.7143 24.5117 13.115 24.8584C13.2258 24.9512 13.3629 25 13.5 25C13.6371 25 13.7795 24.9512 13.885 24.8584C14.2857 24.5117 23.625 16.2891 23.625 9.375C23.625 4.2041 19.0846 0 13.5 0ZM13.5 14.585C10.3992 14.585 7.87324 12.2461 7.87324 9.375C7.87324 6.50391 10.3992 4.16504 13.5 4.16504C16.6008 4.16504 19.1268 6.50391 19.1268 9.375C19.1268 12.2461 16.6008 14.585 13.5 14.585Z" fill="#00A7A9"/>
</svg>
