<svg width="34" height="34" viewBox="0 0 34 34" fill="none" xmlns="http://www.w3.org/2000/svg">
<g clip-path="url(#clip0_80_951)">
<path d="M18.0004 7.83316C18.0004 7.28088 17.5527 6.83316 17.0004 6.83316C16.4481 6.83315 16.0004 7.28087 16.0004 7.83316L16.0004 15.9999L7.83374 15.9999C7.28147 15.9999 6.83372 16.4476 6.83375 16.9999C6.83376 17.5521 7.28148 17.9999 7.83374 17.9999L16.0004 17.9999L16.0004 26.1665C16.0004 26.7188 16.4481 27.1665 17.0004 27.1665C17.5526 27.1665 18.0004 26.7188 18.0004 26.1665L18.0004 17.9999L26.167 17.9998C26.7194 17.9999 27.1671 17.5522 27.167 16.9998C27.1671 16.4476 26.7194 15.9999 26.1671 15.9998L18.0004 15.9999L18.0004 7.83316Z" fill="black"/>
</g>
<defs>
<clipPath id="clip0_80_951">
<rect width="24" height="24" fill="white" transform="translate(17 0.0292969) rotate(45)"/>
</clipPath>
</defs>
</svg>
