<svg width="75" height="66" viewBox="0 0 75 66" fill="none" xmlns="http://www.w3.org/2000/svg">
<path d="M28.5388 0.212204C21.5085 1.15436 14.7172 4.52925 9.62718 9.61972C4.42472 14.8227 1.16263 21.4178 0.206503 28.716C-0.032529 30.6425 -0.0747111 35.0439 0.1362 36.8298C1.3876 46.9826 7.18061 55.9823 15.842 61.2415C19.8353 63.6742 24.0535 65.1367 28.9606 65.8117C30.9291 66.0929 35.5411 66.0507 37.608 65.7414C43.2745 64.8976 48.3363 62.7743 53.0045 59.3009C54.7761 57.9791 58.0382 54.6886 59.374 52.9027C62.1439 49.1481 63.9156 45.4639 65.0264 41.1328C65.7856 38.1235 65.9966 36.3376 65.9966 32.8221C66.0106 29.8128 65.9966 29.7144 65.6591 29.0253C65.167 28.0551 64.6186 27.7035 63.6625 27.802C62.7626 27.8723 62.1861 28.1816 61.7643 28.8004C61.469 29.2503 61.4549 29.391 61.469 32.3018C61.469 35.7048 61.2722 37.4907 60.5832 40.1625C58.8537 46.9263 54.4949 52.973 48.5753 56.8401C43.7806 59.9619 38.7047 61.4665 32.968 61.4665C28.3139 61.4524 24.1519 60.4681 20.0743 58.3869C8.51638 52.509 2.34373 39.4875 5.14181 26.8739C7.02595 18.4085 12.5237 11.3775 20.3414 7.45416C28.9185 3.13711 39.4359 3.55898 47.6192 8.52288C48.6035 9.12754 48.8003 9.1838 49.5877 9.19786C50.6001 9.19786 51.0641 8.93068 51.5562 8.05883C52.1608 7.00417 51.8796 5.93546 50.7969 5.11986C49.644 4.27613 45.482 2.29338 43.4432 1.61841C39.7452 0.409073 36.9049 -0.0268555 32.7852 0.00127411C31.2666 0.0153351 29.3544 0.0997086 28.5388 0.212204Z" fill="#005F97"/>
<g clip-path="url(#clip0_216_2)">
<path d="M74.2772 10.2983L62.6713 21.9034C61.8119 22.763 60.4177 22.763 59.5575 21.9034L53.5664 15.9119C52.7067 15.0523 52.7067 13.658 53.5664 12.7983C54.4263 11.9384 55.8204 11.9384 56.6799 12.7979L61.1148 17.2329L71.1632 7.18449C72.0232 6.32457 73.4173 6.32522 74.2769 7.18449C75.1365 8.04425 75.1365 9.43806 74.2772 10.2983Z" fill="#005F97"/>
</g>
<defs>
<clipPath id="clip0_216_2">
<rect width="22" height="22" fill="white" transform="translate(52.9216 3.54395)"/>
</clipPath>
</defs>
</svg>
